<?xml version="1.0" encoding="UTF-8"?>
<svg id="_Слой_1" data-name="Слой_1" xmlns="http://www.w3.org/2000/svg" version="1.1" viewBox="0 0 436.1 460.6">
  <!-- Generator: Adobe Illustrator 29.8.5, SVG Export Plug-In . SVG Version: 2.1.1 Build 2)  -->
  <defs>
    <style>
      .st0 {
        fill: #e94445;
      }
    </style>
  </defs>
  <path class="st0" d="M381.2,185.7l-10.8-29.4-45.3.6-7.8-10.6-9.1-9.4,8.5-44.2-30.4-17.4-34,29.5-12.7-3.1-13-1.3-22.3-39.3-34.5,6.2-6.7,44.5-11.7,5.8-10.9,7.4-42.6-15.8-22.5,27,23.8,38.3-5.3,11.9-3.6,12.6-43.1,15.3v35.1c.1,0,43.4,14,43.4,14l3.6,12.5,5.4,11.9-23.6,39.5,22.7,26.8,42.5-17.1,10.8,7.2,11.7,5.7,7,45.4,34.6,6,22-40.4,13-1.4,12.6-3.2,34.2,30.3,30.3-17.7-8.7-45.1,9.1-9.4,7.6-10.5,45.3,1.3,11.5-32.1h-10.4l-.2-.2h-42.6c-17,43.9-59.6,75-109.4,75s-117.3-52.6-117.3-117.3,52.6-117.3,117.3-117.3,90.6,29.9,108.3,72.3h43.9"/>
  <g>
    <path class="st0" d="M191.8,227.4c-6,0-7.8,7-7.8,11.9s.5,5.9,5.5,5.9,7.8-5.5,7.8-11.7,0-6-5.5-6Z"/>
    <path class="st0" d="M249.3,273.2c-8.7,0-11.9-7-7.2-15.7l23-42.5,3.4-6.4,3.6-6.6c4.7-8.7,15.5-15.7,24.2-15.7h21.3c-16.8-37.1-54.1-63-97.5-63s-106.9,47.9-106.9,106.9,47.9,106.9,106.9,106.9,81.5-26.4,98-64.1h-68.7ZM218,213.2h5.8c-.4,1.2-.2,3.5,4.1,3.5s4.4-.9,4.9-3.5h5.8c-1.7,6.4-8.8,7.2-11.4,7.2-8.6,0-9.6-4.6-9.1-7.2ZM167.7,249.5h-8.6l5.7-26.4h-.2l-13.9,26.4h-7l-3.3-26.4h-.1l-5.5,26.4h-8.6l7.7-36.4h12.4l3.2,25,13.1-25h12.8l-7.7,36.4ZM188.5,250.5c-11.1,0-12.8-7-12.8-11.8s3.9-16.6,16.8-16.6,12.9,1.5,12.9,11.8-5.9,16.5-16.9,16.5ZM226.4,249.5l3.7-17.1-13.4,17.1h-9.3l5.7-26.4h7.9l-3.7,17.1,13.4-17.1h9.3l-5.7,26.4h-7.9Z"/>
  </g>
  <g>
    <path class="st0" d="M277.5,237.1c.2,3.7,2.3,6.5,8.6,6.5s7.4-2.8,7.4-4.8c0-4.2-4.2-4.4-6.2-4.4h-5.1v-6.7h4.3c2.4,0,6-.5,6-4.1s-5.9-4.4-7.1-4.4c-1.9,0-6.4.1-6.6,5.8h-8.4c.6-9.8,6.6-12.8,15.9-12.8s15.4,2.5,15.4,10.2-4.3,7.6-6.9,8h0c5.2,1.1,8.1,3.7,8.1,9.3,0,9.2-9,10.9-16.9,10.9s-16-1.7-16.6-13.6h8.3Z"/>
    <path class="st0" d="M327.2,223.3h8.4v26.4h-7.9v-17.1l-10.8,17.1h-8.4v-26.4h7.9v17.1l10.8-17.1Z"/>
    <path class="st0" d="M351.4,249.7h-8.6v-36.4h30.9v36.4h-8.6v-29.3h-13.7v29.3Z"/>
  </g>
</svg>